<?xml version="1.0" encoding="UTF-8" standalone="no"?>
<svg
   xmlns:dc="http://purl.org/dc/elements/1.1/"
   xmlns:cc="http://creativecommons.org/ns#"
   xmlns:rdf="http://www.w3.org/1999/02/22-rdf-syntax-ns#"
   xmlns:svg="http://www.w3.org/2000/svg"
   xmlns="http://www.w3.org/2000/svg"
   xmlns:sodipodi="http://sodipodi.sourceforge.net/DTD/sodipodi-0.dtd"
   xmlns:inkscape="http://www.inkscape.org/namespaces/inkscape"
   width="1in"
   height="1in"
   viewBox="0 0 25.4 25.400001"
   version="1.1"
   id="svg8"
   sodipodi:docname="final.svg"
   inkscape:version="1.0alpha (918e01b, 2019-01-29)">
  <defs
     id="defs2" />
  <sodipodi:namedview
     id="base"
     pagecolor="#000000"
     bordercolor="#666666"
     borderopacity="1.0"
     inkscape:pageopacity="0"
     inkscape:pageshadow="2"
     inkscape:zoom="11.2"
     inkscape:cx="44.508162"
     inkscape:cy="49.480109"
     inkscape:document-units="mm"
     inkscape:current-layer="svg8"
     inkscape:document-rotation="0"
     showgrid="false"
     inkscape:pagecheckerboard="false"
     units="in"
     inkscape:window-width="1920"
     inkscape:window-height="1017"
     inkscape:window-x="-8"
     inkscape:window-y="-8"
     inkscape:window-maximized="1" />
  <metadata
     id="metadata5">
    <rdf:RDF>
      <cc:Work
         rdf:about="">
        <dc:format>image/svg+xml</dc:format>
        <dc:type
           rdf:resource="http://purl.org/dc/dcmitype/StillImage" />
        <dc:title></dc:title>
      </cc:Work>
    </rdf:RDF>
  </metadata>
  <path
     id="path1047"
     d="m 13.83769,15.585939 h 4.208605 v 1.31519 H 13.83769 Z"
     style="font-style:normal;font-variant:normal;font-weight:normal;font-stretch:normal;font-size:12.6258px;line-height:1.25;font-family:'Times New Roman';-inkscape-font-specification:'Times New Roman, Normal';font-variant-ligatures:normal;font-variant-caps:normal;font-variant-numeric:normal;text-align:start;letter-spacing:0px;word-spacing:0px;writing-mode:lr-tb;text-anchor:start;opacity:1;fill:#3be5ff;fill-opacity:1;stroke:none;stroke-width:0.315645;stop-opacity:1" />
  <path
     inkscape:connector-curvature="0"
     id="path1049"
     style="font-style:normal;font-variant:normal;font-weight:normal;font-stretch:normal;font-size:12.6258px;line-height:1.25;font-family:'Times New Roman';-inkscape-font-specification:'Times New Roman, Normal';font-variant-ligatures:normal;font-variant-caps:normal;font-variant-numeric:normal;text-align:start;letter-spacing:0px;word-spacing:0px;writing-mode:lr-tb;text-anchor:start;opacity:1;fill:#a567f1;fill-opacity:1;stroke:none;stroke-width:0.315645;stop-opacity:1"
     d="m 15.688087,8.2713625 q 1.306967,-0.2548176 2.367337,-0.2548176 0.789113,0 1.380947,0.2383777 0.600054,0.2383778 0.937071,0.6493739 0.345237,0.4109961 0.509635,0.9041914 0.164399,0.4931951 0.164399,1.0521501 0,0.542515 -0.115079,0.937071 -0.106859,0.386336 -0.345237,0.830212 l -2.498856,5.121012 h 3.024931 v 1.972781 H 15.688087 V 18.00375 l 2.909852,-5.836145 q 0.345237,-0.641153 0.345237,-1.306967 0,-0.8713118 -0.887752,-0.8713118 -0.994611,0 -2.367337,0.2548178 z" />
  <path
     id="path1063"
     d="m 13.83769,12.780203 h 4.208605 v 1.315189 H 13.83769 Z"
     style="font-style:normal;font-variant:normal;font-weight:normal;font-stretch:normal;font-size:12.6258px;line-height:1.25;font-family:'Times New Roman';-inkscape-font-specification:'Times New Roman, Normal';font-variant-ligatures:normal;font-variant-caps:normal;font-variant-numeric:normal;text-align:start;letter-spacing:0px;word-spacing:0px;writing-mode:lr-tb;text-anchor:start;opacity:1;fill:#3be5ff;fill-opacity:1;stroke:none;stroke-width:0.315645;stop-opacity:1" />
  <path
     inkscape:connector-curvature="0"
     id="path1045"
     style="font-style:normal;font-variant:normal;font-weight:normal;font-stretch:normal;font-size:8.41721px;line-height:1.25;font-family:'Times New Roman';-inkscape-font-specification:'Times New Roman, Normal';font-variant-ligatures:normal;font-variant-caps:normal;font-variant-numeric:normal;text-align:start;letter-spacing:0px;word-spacing:0px;writing-mode:lr-tb;text-anchor:start;opacity:1;fill:#fa236e;fill-opacity:1;stroke:none;stroke-width:0.315645;stop-opacity:1"
     d="m 12.982006,13.361849 h 1.753585 v 1.315189 h -1.753585 v 1.753585 H 11.579138 V 14.677038 H 9.8255525 v -1.315189 h 1.7535855 v -1.753586 h 1.402868 z" />
  <path
     inkscape:connector-curvature="0"
     id="path1043"
     style="font-style:normal;font-variant:normal;font-weight:normal;font-stretch:normal;font-size:12.6258px;line-height:1.25;font-family:'Times New Roman';-inkscape-font-specification:'Times New Roman, Normal';font-variant-ligatures:normal;font-variant-caps:normal;font-variant-numeric:normal;text-align:start;letter-spacing:0px;word-spacing:0px;writing-mode:lr-tb;text-anchor:start;opacity:1;fill:#ffffff;fill-opacity:1;stroke:none;stroke-width:0.315645;stop-opacity:1"
     d="m 7.5254143,17.514974 q -1.3480672,0 -3.0413711,-0.263037 v -2.005661 q 1.9810012,0.295917 3.0413711,0.295917 1.4631461,0 1.4631461,-1.561785 0,-0.435656 -0.2137179,-0.821993 Q 8.5693444,12.763859 8.191228,12.615901 7.9528503,12.525481 7.5336343,12.467942 7.1144182,12.410402 6.6705425,12.303544 6.2348866,12.188465 5.8321104,11.950087 4.2867651,11.029456 4.2867651,9.0402345 q 0,-1.4220465 0.9041914,-2.3919973 0.9124113,-0.9699508 2.3344578,-0.9699508 1.1096895,0 3.0413707,0.2054981 V 7.8647856 Q 8.5693444,7.6510677 7.5254143,7.6510677 q -0.312357,0 -0.5507347,0.1397386 Q 6.7445218,7.930545 6.6212229,8.1524829 6.4979241,8.3744208 6.4403846,8.6045786 q -0.04932,0.2301578 -0.04932,0.4520957 0,0.9699507 0.6575938,1.2658677 0.2137179,0.09864 0.9699508,0.221938 0.7644527,0.115079 1.2329883,0.361677 0.6575937,0.337017 1.0850305,0.871311 0.427436,0.534295 0.591834,1.07681 0.164398,0.542515 0.164398,1.12613 0,1.594664 -0.98639,2.564615 -0.9863913,0.969951 -2.5810557,0.969951 z" />
</svg>
